<svg xmlns="http://www.w3.org/2000/svg" viewBox="0 0 1480.97 489.28"><g id="Layer_2" data-name="Layer 2"><g id="Layer_1-2" data-name="Layer 1"><path d="M251.23,467.59c3.53,6.05,2.52,10.09,1,12.61-3.53,6.55-12.61,9.08-19.67,9.08a18.7,18.7,0,0,1-5.55-.51c-36.32-8.57-65.07-54-80.2-80.2-25.73,14.63-48.93,18.66-63.56,18.66-20.17-1-30.76-5.54-31.27-5.54C7.1,402-5.51,340.48,2.05,288.52c8.07-54,30.27-109.46,65.07-160.4,35.82-53,78.19-91.3,126.11-113.49l1-.51C208.36,7.56,224.5,0,241.14,0h4a31.84,31.84,0,0,1,22.19,13.11,24,24,0,0,1,3,20.18q-2.26,6.06-7.57,6.05a14.34,14.34,0,0,1-8.07-3l-3.53,1.51c-2,1-4.54,1.51-7.06,3l-14.63,6.55c-22.19,10.09-38.84,19.68-53,30.77-32.79,24.72-61,56.5-83.73,94.33C66.11,217.4,49.47,257.25,43.42,295.08c-3.54,20.18-6.56,41.87-3,62C45.43,384.36,58,399,76.71,399c13.62,0,31.77-8.07,52.46-24.21-14.13-30.27-23.71-62.55-33.3-94.33l-6.55-20.68a6.91,6.91,0,0,1,1-6.56c1.51-2,5-3.53,9.08-3.53s9.07,1.52,11.09,5.55c14.13,32.79,31.78,62,49.43,92.81,25.73-25.72,45.4-54.47,61.54-80.7,18.16-29.26,40.36-67.59,49.43-109,3.54-16.64,7.07-34.8,4-53-1.51-11.1-7.06-13.62-15.64-16.64-3-1.52-7.06-3-10.59-5.55-4.54-2.52-16.14-16.14-14.12-25.22,0-2.53,2-6.06,7.56-7.06a49.21,49.21,0,0,1,8.58-1c20.17,0,38.84,14.12,48.93,26.73,12.1,15.64,17.15,36.82,15.63,65.57-3,45.4-21.18,95.34-54.47,148.3-22.2,35.31-49.44,67.08-79.7,92.81a512.51,512.51,0,0,0,30.26,43.88,196.06,196.06,0,0,0,20.18,22.2c2,2.52,5,4.54,7.57,6.56C243.16,459.52,247.7,462.54,251.23,467.59ZM557.4,195.71c4.54,2,11.1,2,12.11-4,2-20.69,3-37.33,12.11-56.5,5-10.59,12.1-19.67,20.17-28.25,6.05-6.55,13.62-10.59,16.65-19.16,3.53-10.09-5.05-21.19-14.63-24.22-29.76-8.07-51.45,32.79-61,55C531.68,143.25,527.14,182.09,557.4,195.71ZM745.55,263.8c28.75-16.14-1.52-53-14.63-48.92-25.22,7.06-62.55,25.72-87.77,27.24-.5,0-1,.5-1.51.5-14.13.5-18.67-7.06-21.19-10.09-10.78-14.07-29.56,11.15-28.16,30.16-1.6,1.9-3.14,3.83-4.62,5.66-10.09,12.61-28.25,39.34-32.79,44.38-16.14,18.16-32.78,35.82-51.45,51.45a52.05,52.05,0,0,1-13.11,9.59c1-7.06,3.53-14.63,5.55-21.19,13.11-40.86,35.81-78.69,50.44-119,6.05-15.64-20.18-43.88-32.28-25.72-12.29,19-21.16,40.23-29.77,61.18-10.81,13.5-24,32.21-35.3,48.27-15.13,22.2-43.88,62-49.94,60.53-1.51-13.62,10.6-51.95,16.14-66.58,4.54-12.61,10.09-25.22,14.13-38.34,2-5.54,4-10.59,5.55-16.14a33.52,33.52,0,0,0,1-18.66c-2.53-7.57-9.59-13.62-16.65-16.64-11.1-5.05-17.65,8.57-21.19,17.15-3.53,9.58-6.05,20.68-10.59,30.76-22.19,48.43-50.44,82.73-74.65,101.39-2.52,2-14.12,10.09-17.15,7.06-3.53-3.53,10.09-33.29,14.63-43.88,12.61-31.28,27.74-61.54,40.85-92.81,6.56-16.14-23.7-43.38-31.27-25.22-11.6,26.23-109.46,194.7-40.86,200.75,28.25,2,67.09-40.85,82.22-61l6.06-7.57c-3,39.85,10.08,53.47,20.17,56,19.67,5.55,30.77-6.56,43.38-20.17,4.53-5,12.95-15.19,22.82-27.79-3.06,25.07,13.54,66.15,44.77,52C524.62,396,547.32,368.22,566,347.54c7.57-8.58,15.13-16.65,22.19-25.22,10.21-12.77,21.21-26.32,28.24-41.42a73.44,73.44,0,0,0,16.15-2.47c11.6-3,45.39-12.1,58-18.15-9.08,8.57-80.21,97.85-119.55,124.58-10.09,6.56,1.51,28.25,6.05,31.28,8.07,6.05,25.73-4.54,39.35-9.08,18.66-6.05,26.73-7.57,45.39-11.1,14.13-2.52,29.26-3,38.84,10.59,2,3.53,7.57,18.16,11.6,18.16,10.09,1.51,10.6-25.72,11.1-33.29,2-31.27-23.71-32.79-47.92-29.76-11.09,1.51-30.77,5-37.83,8.07C643.15,361.66,711.25,283,745.55,263.8Zm717.26,13.12c-37.83,52-91.3,118.54-112.48,106.94v.5c-5.55-7.06,2.52-26.23,4.54-33.29,7.06-23.71,22.7-65.07,22.7-65.07,40.35-60,73.64-128.12,87.76-158.89C1470.88,115,1481,95.84,1481,86.76s-5-23.71-13.62-27.74c-13.62-5.55-35.31,26.22-50.94,55.48-19.68,36.32-29.26,50.95-45.4,88.78-14.63,34.3-39.34,80.7-49.94,120.55-19.16,29.76-77.17,91.8-97.85,80.2,0,1-17.15,1,62-181.08,11.6-26.23,82.22-144.26,87.26-159.4,3-8.57-12.1-28.75-23.2-23.7C1322.59,53,1256,187.64,1240.87,222.44c-5.08,12-11.1,25.44-17.21,39.59-50.67,67.36-80.19,105.34-120.49,116.78-22.7,6.05-26.73-27.74-21.19-46.91,10.6-34.3,38.34-65.57,66.59-86.76l5-3c.5,13.61-2,19.67-6.56,27.23-11.09,18.67-26.23,24.72-46.91,31.28-11.09,3.53,3,16.64,10.09,18.66,44.89,12.61,79.7-38.33,65.57-91.3-7.06-26.73-41.86-22.19-58-11.6-19.91,13.81-36.54,32.54-49.9,52.47-13,16.64-19.85,27.56-34.84,43.87-17.15,18.16-26.23-2-28.75-27.74,2.52-4,4.54-8.07,6.56-12.11,2.52-6.55,5-16.14,7.06-22.69,3-13.12.5-17.66-9.08-28.25-6.05-6.56-15.64-9.58-22.2.5-7.06,10.6-11.6,26.74-11.6,39.85A206.79,206.79,0,0,1,961.94,288c-16.14,27.74-38.84,63.55-65.57,81.21-3,2-6.06,3.53-10.09,3.53v-1.52c-5.55-13.11,3.53-38.83,8.07-53,10.59-31.27,11.6-30.26,27.74-61,3-5,1-11.1-2.52-16.14C918.05,238.59,914,233,907.46,231a21.78,21.78,0,0,1-2.52-.51c-5.55-2-12.61-2-16.14,2.53-14.12,17.65-23.71,38.33-34.3,73.64-3,10.59-49.43,70.62-72.13,78.18h-.51c1-5-7.06-21.69,59.52-149.3,5.55-10.59-11.09-28.75-21.68-26.74-18.16,3.54-28.76,30.27-35.31,45.91-10.09,23.7-18.67,43.88-26.74,67.08-8.57,23.71-19.16,69.11,7.06,87.27a47.18,47.18,0,0,0,18.16,7.06c5.55,1.51,11.6,1,17.15-.51,14.13-5,30.27-21.69,40.86-36.32,3.53-4.53,7.57-9.07,10.59-14.12,4.54,20.68,19.68,43.89,44.39,45.9,6,.51,12.61-4.54,17.15-8.07,9.08-6.56,17.15-14.63,24.72-22.7A382.75,382.75,0,0,0,972,339c4.54-6,8.57-12.1,12.1-17.65,6.56,13.11,17.66,25.22,30.27,30.26,9.78,3.56,19.69.84,29.18-5.65a98.24,98.24,0,0,0,4.61,23.31c8.07,24.21,31.78,47.41,61,42.37,18.21-3.09,51.14-25.05,81.82-56.89-.63,3.05-1.18,6-1.62,9-4,28.75-5.55,63.05,33.8,69.1,19.67,3,43.88-13.62,58-26.23,13.12-12.61,24.22-23.7,33.8-35.31,1,19.68,8.57,37.33,35.31,41.37,19.67,3.53,37.83-13.62,51.45-26.23,20.68-18.67,56-60.53,69.1-80.2C1485,285,1467.86,269.86,1462.81,276.92Z"/></g></g></svg>