<svg id="Layer_1" data-name="Layer 1" xmlns="http://www.w3.org/2000/svg" xmlns:xlink="http://www.w3.org/1999/xlink" viewBox="0 0 1080 1080"><defs><style>.cls-1{fill:url(#linear-gradient);}.cls-2{fill:url(#linear-gradient-2);}.cls-3{fill:url(#linear-gradient-3);}.cls-4{fill:url(#linear-gradient-4);}</style><linearGradient id="linear-gradient" x1="92.47" y1="540" x2="593.7" y2="540" gradientUnits="userSpaceOnUse"><stop offset="0" stop-color="#8077d5"/><stop offset="1" stop-color="#8c6acc"/></linearGradient><linearGradient id="linear-gradient-2" x1="808.52" y1="260.83" x2="808.52" y2="827.7" gradientUnits="userSpaceOnUse"><stop offset="0" stop-color="#3bbebe"/><stop offset="1" stop-color="#1870a1"/></linearGradient><linearGradient id="linear-gradient-3" x1="447.51" y1="834.06" x2="237.99" y2="471.17" gradientUnits="userSpaceOnUse"><stop offset="0" stop-color="#ee4e39"/><stop offset="1" stop-color="#f1873b"/></linearGradient><linearGradient id="linear-gradient-4" x1="629.5" y1="714.19" x2="987.53" y2="714.19" xlink:href="#linear-gradient"/></defs><path class="cls-1" d="M376.33,252.3c73.31,0,126.16,20.46,161.11,46,34.1,25.57,50.3,56.26,50.3,79.27,0,55.41-70.76,68.2-72.46,63.93-27.28-48.58-78.42-75-134.68-75-92.07,0-158.56,69.05-158.56,173,0,103.15,68.2,173.9,160.26,173.9,63.93,0,115.08-31.54,136.39-82.68,1.71-5.12,75,7.67,75,63.08,0,23.86-17,57.11-52.85,84.39S450.5,827.7,374.63,827.7c-167.08,0-282.16-118.49-282.16-287.27C92.47,372.5,208.4,252.3,376.33,252.3Z"/><path class="cls-2" d="M677.24,664c22.16,34.1,56.26,56.26,99.74,56.26,60.52,0,85.24-29.83,85.24-107.41V317.94c0-38.36,17.9-57.11,52.85-57.11H933c35.8,0,54.56,18.75,54.56,57.11V614.59c0,144.91-65.64,213.11-195.21,213.11C690,827.7,629.5,782.52,629.5,728.81,629.5,682.78,674.68,660.62,677.24,664Z"/><path class="cls-3" d="M92.77,555C99.22,716,212.41,827.7,374.63,827.7c75.87,0,130.42-22.17,166.22-49.44s52.85-60.53,52.85-84.39c0-55.41-73.3-68.2-75-63.08-21.31,51.14-72.46,82.68-136.39,82.68-37,0-70.18-11.45-96.6-31.84h0C264.12,677,140.35,617.64,92.77,555Z"/><path class="cls-4" d="M834.48,703.7C820.91,715.18,802,720.29,777,720.29c-43.48,0-77.58-22.16-99.74-56.26-2.56-3.41-47.74,18.75-47.74,64.78,0,53.71,60.53,98.89,162.82,98.89,129.57,0,195.21-68.2,195.21-213.11V600.68C965.05,656.37,865,690,834.48,703.7Z"/></svg>