<svg id="Layer_1" data-name="Layer 1" xmlns="http://www.w3.org/2000/svg" viewBox="0 0 250 250"><path d="M139.93,17.41c-.28-.24-.57-.47-.86-.69l-.22-.17-.71-.5-.22-.15-.7-.44-.27-.17c-.21-.13-.43-.25-.65-.37l-.35-.19-.6-.31-.43-.21L134.4,14l-.54-.24-.42-.16-.67-.25-.31-.11-.78-.25-.22-.06c-.3-.08-.59-.17-.89-.24l-.12,0a22.18,22.18,0,0,0-4.18-.61h-.15l-.57,0h-1.17l-.59,0-.63.05-.5,0-.7.08-.42.06-.74.12-.37.07-.75.17-.35.08-.74.2-.37.1-.69.23-.4.14-.63.23-.45.18-.57.25-.49.23-.5.24c-.18.09-.36.18-.53.28l-.45.25-.55.32-.42.26L112,16l-.42.29-.5.36a5.37,5.37,0,0,0-.45.35l-.45.35-.52.45-.34.29-.65.63-.17.15,0,0,0,0L48.12,79.22a23.33,23.33,0,0,0,33,33L102,91.35l.7,123.45a23.34,23.34,0,0,0,46.67-.13v-.14L148.66,92l20.22,20.22a23.33,23.33,0,1,0,33-33L141.5,18.83s0,0,0,0c-.2-.2-.41-.39-.62-.58l-.23-.22C140.39,17.79,140.16,17.6,139.93,17.41Z"/></svg>