<svg id="Layer_1" data-name="Layer 1" xmlns="http://www.w3.org/2000/svg" viewBox="0 0 250 250"><defs><style>.cls-1{fill:#fff;}</style></defs><path class="cls-1" d="M100.26,151.4c.67-28.08,15.56-39.92,29.77-48.38,14.55-8.45,28.76-13.53,28.76-28.08,0-14.88-11.51-24.69-31.47-24.69-28.08,0-40.93,19.62-43.64,38.9-.34.68-32.48,2-32.48-23.68,0-12.18,6.43-25.71,19.28-36.2C83.34,18.44,102.63,11,128.34,11,176,11,204.8,35.36,204.8,71.56c0,28.08-15.56,39.92-31.46,50.07-16.24,10.15-32.15,17.59-33.84,37.22-1.35,6.43-8.45,9.47-19.28,9.47C108.38,168.32,99.92,162.57,100.26,151.4ZM148,212a27,27,0,1,1-27-27A27,27,0,0,1,148,212Z"/></svg>