<svg id="Layer_1" data-name="Layer 1" xmlns="http://www.w3.org/2000/svg" viewBox="0 0 250 250"><path d="M224,100H199.94a79.82,79.82,0,0,0-4.27-10.31l17-17a15,15,0,0,0,0-21.21L198.54,37.32a15,15,0,0,0-21.21,0l-17,17A79.82,79.82,0,0,0,150,50.06V26a15,15,0,0,0-15-15H115a15,15,0,0,0-15,15V50.06a79.82,79.82,0,0,0-10.31,4.27l-17-17a15,15,0,0,0-21.21,0L37.32,51.46a15,15,0,0,0,0,21.21l17,17A79.82,79.82,0,0,0,50.06,100H26a15,15,0,0,0-15,15v20a15,15,0,0,0,15,15H50.06a79.82,79.82,0,0,0,4.27,10.31l-17,17a15,15,0,0,0,0,21.21l14.14,14.14a15,15,0,0,0,21.21,0l17-17A79.82,79.82,0,0,0,100,199.94V224a15,15,0,0,0,15,15h20a15,15,0,0,0,15-15V199.94a79.82,79.82,0,0,0,10.31-4.27l17,17a15,15,0,0,0,21.21,0l14.14-14.14a15,15,0,0,0,0-21.21l-17-17A79.82,79.82,0,0,0,199.94,150H224a15,15,0,0,0,15-15V115A15,15,0,0,0,224,100Zm-99,61a36,36,0,1,1,36-36A36,36,0,0,1,125,161Z"/></svg>