<svg id="Layer_1" data-name="Layer 1" xmlns="http://www.w3.org/2000/svg" viewBox="0 0 1080 1080"><defs><style>.cls-1{fill:#fff;}</style></defs><path class="cls-1" d="M518.69,630.79c-21.31,51.14-72.46,82.68-136.39,82.68-1.32,0-2.63,0-3.94-.05l-1.23,0-2.7-.1-1.4-.07c-.88,0-1.75-.1-2.62-.16L369.1,713c-1.1-.08-2.2-.17-3.3-.28l-.53-.05c-1.25-.12-2.49-.26-3.73-.41l-1.32-.17c-.82-.1-1.63-.21-2.44-.33l-1.51-.22-2.28-.37-1.49-.25c-.84-.15-1.69-.31-2.53-.48l-1.15-.22c-1.15-.23-2.29-.47-3.43-.73l-1.58-.37-2-.47-1.73-.44-1.8-.48-1.77-.49-1.75-.52c-1-.31-2.07-.63-3.09-1l-1.73-.55L328,704.5l-1.4-.49-2-.73-1.3-.5c-.68-.26-1.36-.52-2-.8l-1.06-.43c-2.46-1-4.89-2.09-7.28-3.22l-.8-.38L310,696.87l-.86-.43c-.74-.38-1.48-.76-2.22-1.16l-.57-.3q-3.82-2.06-7.52-4.32l-.29-.18c-.77-.47-1.54-1-2.3-1.45l-.54-.35c-.76-.49-1.51-1-2.27-1.5l-.31-.21c-2.51-1.7-5-3.48-7.38-5.34C246.42,651.32,222,601.24,222,539.57c0-104,66.49-173,158.56-173,56.26,0,107.4,26.43,134.68,75,1.7,4.27,72.46-8.52,72.46-63.93,0-23-16.2-53.7-50.3-79.27-35-25.58-87.8-46-161.11-46C208.4,252.3,92.47,372.5,92.47,540.43q0,11,.66,21.62l0,.56q.21,3.3.47,6.57c0,.32.05.64.08,1,.17,2.08.37,4.16.58,6.23l.12,1.21q.32,3,.69,6c.06.46.11.93.17,1.4.24,1.92.51,3.84.79,5.75.07.51.14,1,.22,1.54q.42,2.79.89,5.56c.09.54.18,1.09.28,1.64q.47,2.71,1,5.41c.11.57.21,1.14.32,1.71q.52,2.64,1.09,5.26c.13.59.25,1.19.38,1.78.38,1.72.78,3.43,1.18,5.13.15.61.29,1.21.44,1.82.41,1.68.84,3.35,1.27,5,.17.61.33,1.23.49,1.84.45,1.65.9,3.28,1.37,4.91l.54,1.86c.48,1.61,1,3.22,1.47,4.81.19.63.39,1.25.59,1.87.5,1.58,1,3.16,1.55,4.72.21.63.43,1.25.64,1.87q.81,2.32,1.65,4.64l.69,1.85q.86,2.29,1.75,4.56c.24.61.48,1.22.73,1.83.6,1.51,1.21,3,1.84,4.49.25.6.51,1.2.77,1.8.64,1.49,1.28,3,1.94,4.43l.81,1.77q1,2.19,2,4.36l.84,1.73c.71,1.44,1.42,2.88,2.14,4.3l.87,1.68q1.11,2.15,2.26,4.26c.29.54.59,1.07.88,1.6.78,1.42,1.56,2.83,2.37,4.23.29.51.6,1,.89,1.53q1.23,2.12,2.49,4.2c.3.48.6,1,.89,1.44.87,1.4,1.74,2.8,2.63,4.19.28.44.57.87.86,1.3.92,1.42,1.84,2.83,2.79,4.22l.78,1.12c1,1.44,2,2.88,3,4.29l.63.88c1.08,1.49,2.16,3,3.27,4.43l.37.48A256.21,256.21,0,0,0,175,751.48c.09.08.17.17.26.26,1.23,1.19,2.48,2.37,3.73,3.54l1,1c1.12,1,2.27,2.07,3.42,3.09l1.46,1.3q1.62,1.43,3.27,2.8c.57.49,1.14,1,1.72,1.47q1.58,1.3,3.18,2.58c.64.52,1.28,1,1.93,1.56,1,.82,2.08,1.61,3.13,2.41.69.54,1.39,1.08,2.09,1.6,1,.77,2.07,1.52,3.1,2.27.75.54,1.49,1.09,2.24,1.62,1,.72,2,1.43,3.08,2.14l2.36,1.61c1,.69,2,1.36,3.08,2,.83.53,1.64,1.07,2.47,1.59l3.09,1.92c.86.53,1.71,1.06,2.57,1.57,1,.62,2.06,1.22,3.1,1.82l2.67,1.54c1,.58,2.07,1.15,3.11,1.72s1.83,1,2.76,1.49S236,795.48,237,796s1.89,1,2.84,1.44L243,799l2.92,1.39c1.06.49,2.11,1,3.18,1.46s2,.9,3,1.34l3.19,1.37,3.08,1.28c1.07.44,2.14.87,3.22,1.29s2.09.82,3.15,1.22,2.16.82,3.25,1.21l3.21,1.16,3.28,1.13c1.09.37,2.19.73,3.29,1.08s2.19.71,3.29,1,2.24.69,3.37,1,2.2.66,3.31,1,2.29.64,3.44.95l3.33.89,3.52.88c1.11.27,2.22.55,3.34.81l3.59.8c1.12.25,2.23.5,3.36.73l3.66.73,3.37.65c1.25.23,2.5.44,3.75.65s2.24.39,3.38.57,2.55.39,3.83.58l3.37.49c1.31.18,2.63.33,3.94.49,1.12.14,2.23.29,3.35.41,1.35.16,2.71.28,4.07.42l3.3.33c1.4.12,2.82.22,4.23.33,1.08.08,2.14.18,3.22.25,1.49.1,3,.17,4.47.25l3.06.17c1.68.07,3.36.12,5,.17l2.57.08q3.82.09,7.68.09c75.87,0,130.42-22.17,166.22-49.44s52.85-60.53,52.85-84.39C593.7,638.46,520.4,625.67,518.69,630.79Z"/><path class="cls-1" d="M933,260.83h-17.9c-35,0-52.85,18.75-52.85,57.11V612.88c0,45.49-8.51,74.56-27.74,90.82h0a58.48,58.48,0,0,1-8.18,5.78l0,0A66,66,0,0,1,817,714l-.17.07c-2.16.83-4.39,1.58-6.71,2.24l-.14,0c-1.13.32-2.28.62-3.44.9l-.37.08c-2.33.55-4.75,1-7.24,1.42l-.42.07c-1.19.18-2.41.35-3.65.5l-.6.07c-1.26.14-2.53.28-3.84.39h0c-1.28.11-2.58.2-3.89.28l-.68,0c-1.29.07-2.59.12-3.91.16h-.77c-1.37,0-2.75.06-4.15.06-43.48,0-77.58-22.16-99.74-56.26-2.56-3.41-47.74,18.75-47.74,64.78,0,53.71,60.53,98.89,162.82,98.89,129.57,0,195.21-68.2,195.21-213.11V317.94C987.53,279.58,968.77,260.83,933,260.83Z"/></svg>