<svg id="Layer_1" data-name="Layer 1" xmlns="http://www.w3.org/2000/svg" viewBox="0 0 250 250"><defs><style>.cls-1{fill:#fff;}</style></defs><path class="cls-1" d="M234.5,61.34,188.66,15.5a18.58,18.58,0,0,0-6.21-4.12c-.57-.23-1.14-.43-1.72-.61a18.7,18.7,0,0,0-3.55-.68q-.9-.09-1.8-.09a18.79,18.79,0,0,0-8.73,2.15,18.5,18.5,0,0,0-3.12,2.06,19.14,19.14,0,0,0-1.43,1.29L141.62,36l-41,41a18.78,18.78,0,0,0,0,26.56l16.08,16.08L61.61,174.7A15,15,0,0,0,49.75,179L14.39,214.39a15,15,0,0,0,21.22,21.22L71,200.25a14.94,14.94,0,0,0,4.38-11l55.54-55.54,15.62,15.62a18.79,18.79,0,0,0,23.61,2.41,19.09,19.09,0,0,0,2.95-2.41l30.72-30.72L234.5,87.9a19.09,19.09,0,0,0,2.41-3,18.81,18.81,0,0,0-2.41-23.61ZM210,84.15l-3.87-3.87,6.67-6.66,3.87,3.87ZM198.13,96l-3.87-3.87,6.67-6.66,3.87,3.87ZM186.3,107.81l-3.87-3.87,6.67-6.67,3.87,3.87Zm-11.82,11.83-3.87-3.87,6.66-6.67,3.87,3.87Zm-11.83,11.83-3.87-3.87,6.66-6.67,3.87,3.87ZM125.2,80.69l3.87,3.87-6.67,6.66-3.87-3.87ZM137,68.86l3.87,3.87-6.67,6.66-3.87-3.87ZM148.86,57l3.87,3.87-6.67,6.67-3.87-3.87ZM160.68,45.2l3.87,3.87-6.66,6.67L154,51.87Zm11.83-11.83,3.87,3.87-6.66,6.67L165.85,40Zm-27.83,66.79,5.16,5.16L143.17,112,138,106.83Zm-11.89,1.45-5.16-5.17,6.66-6.66,5.16,5.16Zm6.66-17L146.12,78l5.16,5.16-6.66,6.67Zm15.61,25.93,5.16,5.16-6.66,6.66-5.17-5.16ZM155,100.16,149.84,95l6.66-6.67,5.17,5.17Zm-3.72-27.37L158,66.12l5.16,5.16L156.44,78Zm15.61,25.93,5.16,5.16-6.67,6.67-5.16-5.17Zm-.06-10.39-5.16-5.16,6.66-6.66,5.16,5.16ZM163.11,61l6.67-6.67,5.16,5.17-6.67,6.66Zm15.61,25.93,5.16,5.16-6.67,6.67-5.16-5.16Zm-.06-10.38-5.17-5.17,6.67-6.66,5.16,5.16Zm-3.72-27.38,6.66-6.66,5.17,5.16-6.67,6.66Zm15.6,25.93,5.17,5.16L189,86.89l-5.16-5.16Zm-.06-10.38-5.16-5.16L192,52.85,197.15,58Zm11.89-1.45,5.16,5.17-6.66,6.66-5.16-5.16Z"/></svg>