<svg id="Layer_1" data-name="Layer 1" xmlns="http://www.w3.org/2000/svg" viewBox="0 0 250 250"><path d="M12,164.92V89.67c0-5.8,3.06-9.08,8.31-9.08H37.05c5.14,0,7.33,1.75,7.33,5.91v.66c0,4.37-2.19,6.12-7.33,6.12H26.33v68H37.16c5.25,0,7.43,1.64,7.43,5.8v.55c0,4.37-2.18,6.23-7.43,6.23H20.31C15.06,173.89,12,170.61,12,164.92Z"/><path d="M71.3,120.3h1.75a6.63,6.63,0,0,0-.11-1.53c-.22-6.24-4-9.63-10.83-9.63-7.33,0-11.26,3.72-13.12,7.77-.11.22-10,1-10-6.13a9.79,9.79,0,0,1,3.28-7c3.61-3.72,10.5-6.23,20.79-6.23,16.95,0,25.15,7.76,25.15,22.09v31.5c0,.77-2.84,1.75-5.79,1.75-3.72,0-6.68-1.53-8.1-5.14a21.78,21.78,0,0,1-.87-3.61c-3.72,5.8-10.5,9.19-18.49,9.19-11.15,0-17.94-6.13-17.94-15.31C37.06,126.09,48.66,120.62,71.3,120.3Zm1.75,7.76h-3c-12.15.44-18.6,2.74-18.6,8.75,0,4.05,3.17,6.57,8.31,6.57,7.66,0,13.13-4.71,13.24-11.49Z"/><path d="M114.28,147.31c-.54,3.94-3.06,5.25-6.34,5.25H106.3c-4,0-7-1.64-7-7.43V77.86c0-.44,2.73-1.75,5.9-1.75,4.49,0,9.52,2.4,9.52,12.36V106.3a20.08,20.08,0,0,1,17.17-8.75c14.44,0,24.61,10.82,24.61,27.89,0,16.62-10.06,28.22-24.72,28.22-8.31,0-14.44-4.27-17.17-9.52Zm13.89-37.4a13.86,13.86,0,0,0-13.45,8.75v10.39c.22,7.22,6,12.25,13.34,12.25,8.21,0,13.68-6.35,13.68-15.75S136.16,109.91,128.17,109.91Z"/><path d="M190.51,97.55c8.21,0,13.9,2.4,17.51,5.36s5.24,6.56,5.24,9.18c0,6.24-8.31,7.44-8.64,6.79-2.07-5.15-5.9-8.86-13.45-8.86-8.31,0-14.44,6.45-14.44,15.42,0,9.19,6,15.75,14.44,15.75,7.33,0,11.38-3.72,13.45-8.86.33-.66,8.64.22,8.64,6.89,0,2.52-1.64,6.12-5.35,9-3.61,3.06-9.41,5.47-17.4,5.47-16.4,0-27.89-11.6-27.89-28.22C162.62,109.25,174.33,97.55,190.51,97.55Z"/><path d="M205.4,167.66v-.55c0-4.16,2.19-5.8,7.44-5.8h10.83v-68H213.06c-5.25,0-7.44-1.75-7.44-6.12V86.5c0-4.16,2.19-5.91,7.44-5.91h16.63c5.25,0,8.31,3.28,8.31,9.08v75.25c0,5.69-3.06,9-8.31,9H212.84C207.59,173.89,205.4,172,205.4,167.66Z"/></svg>