<svg id="Layer_1" data-name="Layer 1" xmlns="http://www.w3.org/2000/svg" viewBox="0 0 250 250"><defs><style>.cls-1{fill:#fff;}</style></defs><path class="cls-1" d="M229.92,95.49l-35.12-5.1,15,42.48L234.3,109C240.62,102.83,238.64,96.76,229.92,95.49Z"/><path class="cls-1" d="M153.19,67.16,132.1,24.42c-3.91-7.91-10.29-7.91-14.2,0L97.71,65.34l-10,20.33L51.3,91h0L20.08,95.49c-8.72,1.27-10.7,7.34-4.38,13.5l26.91,26.23h0l22,21.44-5.94,34.62h0L53.06,224c-1.49,8.7,3.68,12.45,11.48,8.35l36.06-19L125,200.54l31.76,16.7,28.7,15.09c7.8,4.1,13,.35,11.48-8.35l-4.7-27.37-6.85-40,24.41-23.79-15-42.48-32.48-4.72Z"/></svg>