<svg id="Layer_1" data-name="Layer 1" xmlns="http://www.w3.org/2000/svg" viewBox="0 0 250 250"><path d="M223,95h-3v60h3a15,15,0,0,0,15-15V110A15,15,0,0,0,223,95Z"/><path d="M223,12H72V72H223a15,15,0,0,0,15-15V27A15,15,0,0,0,223,12Z"/><path d="M37.09,65.83v-37a8.13,8.13,0,0,1-5.26,1.91A8.89,8.89,0,0,1,26,28.61a7.29,7.29,0,0,1-2.27-5.44c0-4.45,3.18-6.54,3.54-6.36a8.44,8.44,0,0,0,5.53,2A7.88,7.88,0,0,0,40.54,12h3.9c3.82,0,5.81,2.09,5.81,6.17V65.83c0,4-2,6.17-5.81,6.17H42.72C39,72,37.09,69.82,37.09,65.83Z"/><path d="M145,95H27a15,15,0,0,0-15,15v30a15,15,0,0,0,15,15H160V95Z"/><path d="M57,178H27a15,15,0,0,0-15,15v30a15,15,0,0,0,15,15H72V178Z"/><path d="M223,178H132v60h91a15,15,0,0,0,15-15V193A15,15,0,0,0,223,178Z"/><path d="M167.4,148.19v-2.81c0-11.26,9.62-16.7,18-20.79,7.35-3.45,13.44-5.81,13.44-10.89s-3.55-7.81-9.9-7.81c-7.44,0-11.35,4.9-12.62,10.26,0,.18-8.71.54-8.71-6.17,0-3.63,2-7.36,5.72-10.17S182.65,95,189.73,95c14.07,0,22.05,6.9,22.05,18.15,0,10.9-8.07,14.8-16.61,18.52-6.8,2.82-12.7,5.36-14.88,10.26a7.91,7.91,0,0,0-.82,2.09h26.78c4.54,0,6.35,1.81,6.35,5v.63c0,3.45-1.81,5.36-6.35,5.36H175.48C169.39,155,167.4,153.64,167.4,148.19Z"/><path d="M84.89,233.64c-3.73-2.48-5.78-5.77-5.78-8.8,0-6.57,7.65-6.75,7.73-6.22,1.87,6,7.2,9.16,14.23,9.16s11.28-3.11,11.28-8.18c0-5.25-3.46-7.91-10.22-7.91h-3c-4.36,0-6-1.6-6-4.45v-.71c0-3.11,2-4.44,5.86-4.44h4.27c5.33,0,8.18-2.58,8.18-6.76,0-4.44-3.91-7.2-10.49-7.2-7.47,0-11.11,4-12.8,8.27-.09.53-7.56.27-7.56-6.13,0-3,2-6.05,5.6-8.36s8.71-3.91,15-3.91c14.48,0,22.57,5.69,22.57,15.82,0,6.05-3.46,10.05-10,12,7.2,2.4,11.2,7.56,11.2,14.58,0,11.11-8.62,17.6-23.73,17.6C94.13,238,88.62,236.22,84.89,233.64Z"/></svg>