<?xml version="1.0" encoding="utf-8"?>
<!-- Generator: Adobe Illustrator 24.2.1, SVG Export Plug-In . SVG Version: 6.00 Build 0)  -->
<svg version="1.1" id="Layer_1" xmlns="http://www.w3.org/2000/svg" xmlns:xlink="http://www.w3.org/1999/xlink" x="0px" y="0px"
	 viewBox="0 0 350 443.6" style="enable-background:new 0 0 350 443.6;" xml:space="preserve">
<style type="text/css">
	.st0{fill:#FFFFFF;}
</style>
<g id="Layer_2_1_">
	<g id="Layer_1-2">
		<path class="st0" d="M174.7,443.3c-34,0-67.9,0.6-101.8-0.1c-54.3-1.1-72.8-20.4-72.8-74.5c0-59.7-0.2-119.4,0.1-179.2
			c0.2-43.6,19.7-63.8,63.2-66c11.6-0.6,23.2,0.1,34.8-0.3c13.3-0.4,22.8,2.5,22.5,18.8c-0.3,16.9-11.4,17.7-23.8,17.8
			c-10.8,0-21.5,0.2-32.3,0.4c-18.1,0.3-27.6,9.6-27.7,27.8c-0.1,63-0.1,126.1-0.1,189.1c0,20.8,11.6,29.8,31.4,29.8
			c71.2,0,142.4,0,213.6-0.1c21.3-0.1,31.6-11,31.5-32.6c-0.2-60.5-0.4-121.1,0.1-181.6c0.2-23.4-10.9-33.3-33.4-32.7
			c-10.8,0.3-21.5-0.2-32.3-0.2c-12.1,0-18.3-5.4-18.3-18c0-12.3,5.4-18.6,17.9-18.2c1.6,0.1,3.3,0,5-0.1
			c81.3-3.5,97.6,12.2,97.6,94.2c0,51.4,0.1,102.8,0,154.3c-0.1,49.6-18.6,68.9-68.5,71.5c-1.6,0.1-3.3,0.1-5,0.1
			C242.6,443.4,208.7,443.4,174.7,443.3z"/>
		<path class="st0" d="M191.9,50.1c0,72.3,0,136.9,0,201.5c0.2,7.5-0.1,14.9-0.9,22.4c-1,8.4-6.5,13.7-14.8,14.2
			c-9.6,0.5-15.9-5.1-17-14.5c-1.1-9.9-0.9-19.9-0.9-29.8c-0.1-62.1,0-124.1,0-194.1c-14.3,15-24,25.6-34.2,35.8
			c-7.4,7.5-16.2,13.6-26,4.9c-10.1-9-4.6-18.1,3-25.6c19.5-19.2,39.1-38.3,58.8-57.3c9-8.7,19-10.5,28.6-1.4
			c21,20,41.8,40.2,62.4,60.7c6.4,6.3,9.6,14.3,2.8,22.1c-7.6,8.6-16.7,6.8-24.1-0.2C218.2,77.9,207.7,66.3,191.9,50.1z"/>
	</g>
</g>
</svg>
