<?xml version="1.0" standalone="no"?>
<!DOCTYPE svg PUBLIC "-//W3C//DTD SVG 20010904//EN"
 "http://www.w3.org/TR/2001/REC-SVG-20010904/DTD/svg10.dtd">
<svg version="1.0" xmlns="http://www.w3.org/2000/svg"
 width="700.000000pt" height="700.000000pt" viewBox="0 0 700.000000 700.000000"
 preserveAspectRatio="xMidYMid meet">
<metadata>
Created by potrace 1.14, written by Peter Selinger 2001-2017
</metadata>
<g transform="translate(0.000000,700.000000) scale(0.100000,-0.100000)"
fill="#000000" stroke="none">
<path d="M2357 5364 c-1 -1 -45 -5 -99 -8 -53 -4 -107 -9 -120 -12 -12 -2 -39
-7 -58 -9 -19 -3 -46 -8 -60 -11 -14 -3 -32 -7 -40 -9 -227 -46 -484 -165
-690 -318 -87 -64 -280 -264 -341 -352 -167 -240 -273 -499 -319 -782 -6 -40
-14 -85 -16 -100 -9 -56 -13 -439 -5 -498 5 -33 12 -85 16 -115 43 -342 226
-725 464 -972 273 -286 600 -452 1026 -523 114 -19 381 -25 526 -12 380 34
728 175 952 386 330 311 339 657 21 823 -77 40 -125 56 -200 64 l-50 6 -20
-43 c-137 -305 -473 -499 -863 -499 -461 0 -829 266 -976 704 -13 39 -26 82
-29 96 -2 14 -10 50 -16 80 -18 85 -21 360 -4 464 58 371 262 659 569 806 65
31 133 54 195 66 14 2 32 7 40 10 18 7 148 18 210 18 254 1 508 -94 682 -254
65 -59 142 -152 169 -201 17 -33 29 -39 64 -33 167 28 330 134 384 250 86 183
27 380 -173 580 -191 191 -466 317 -811 373 -100 16 -416 35 -428 25z"/>
<path d="M5834 5300 c-92 -19 -164 -71 -204 -150 -39 -74 -39 -91 -41 -1185 0
-583 -4 -1085 -9 -1115 -4 -30 -11 -75 -15 -100 -3 -25 -17 -76 -30 -114 -74
-213 -246 -311 -526 -300 -234 9 -432 115 -581 312 -22 28 -45 52 -52 52 -24
0 -115 -61 -160 -107 -159 -160 -181 -385 -56 -575 182 -278 631 -422 1171
-375 564 48 916 359 1028 909 17 84 24 132 37 268 6 70 6 2160 -1 2205 -22
147 -100 237 -236 273 -46 12 -270 13 -325 2z"/>
</g>
</svg>
